<?xml version="1.0" standalone="no"?>
<!DOCTYPE svg PUBLIC "-//W3C//DTD SVG 20010904//EN"
 "http://www.w3.org/TR/2001/REC-SVG-20010904/DTD/svg10.dtd">
<svg version="1.0" xmlns="http://www.w3.org/2000/svg"
 width="160.000000pt" height="160.000000pt" viewBox="0 0 160.000000 160.000000"
 preserveAspectRatio="xMidYMid meet">
<metadata>
Created by potrace 1.14, written by Peter Selinger 2001-2017
</metadata>
<g transform="translate(0.000000,160.000000) scale(0.100000,-0.100000)"
fill="#000000" stroke="none">
<path d="M1139 1593 c-23 -5 -55 -67 -78 -152 l-21 -74 30 28 c40 38 97 123
105 156 7 28 -10 48 -36 42z"/>
<path d="M580 1473 c-32 -23 -22 -73 34 -169 47 -81 55 -109 34 -117 -22 -7
-52 13 -86 58 -41 57 -65 70 -86 49 -19 -18 -11 -39 36 -93 42 -48 54 -82 33
-98 -18 -12 -40 -8 -65 12 -38 32 -94 54 -107 43 -23 -19 -14 -38 32 -70 49
-34 63 -61 45 -83 -12 -14 -34 -10 -101 19 -27 11 -39 12 -47 4 -29 -29 -9
-45 63 -54 22 -3 46 -7 53 -9 18 -6 15 -39 -6 -65 -21 -26 -69 -31 -162 -16
-30 5 -75 9 -100 10 -39 1 -46 -2 -60 -27 -14 -27 -14 -29 7 -46 25 -21 72
-16 168 16 62 20 146 23 168 4 20 -16 22 -54 5 -68 -7 -6 -37 -18 -66 -28 -58
-19 -81 -45 -56 -66 12 -10 24 -10 63 3 91 29 109 -16 34 -80 -41 -35 -46 -43
-37 -59 16 -25 47 -19 99 18 51 37 79 35 83 -4 2 -19 -12 -51 -52 -112 -83
-127 -88 -140 -77 -183 1 -1 10 2 21 8 11 6 43 59 71 117 77 163 97 184 134
146 26 -25 14 -78 -40 -183 -55 -108 -62 -143 -34 -171 15 -15 24 -17 38 -9
25 13 28 27 46 205 9 80 28 123 58 130 52 13 78 -21 82 -107 3 -66 4 -68 30
-68 30 0 30 5 7 67 -23 60 -19 80 20 88 43 10 57 -9 66 -89 9 -74 24 -93 56
-72 32 21 28 50 -14 112 -30 45 -37 61 -29 76 17 31 86 19 116 -21 10 -13 11
-10 3 16 -7 26 -4 38 14 65 12 18 29 34 38 36 9 2 42 -13 72 -34 46 -30 58
-35 71 -24 25 21 17 38 -40 80 -56 41 -64 57 -43 78 20 20 42 14 155 -43 129
-66 172 -76 190 -46 17 27 1 68 -31 81 -13 5 -55 12 -93 15 -137 12 -157 15
-180 30 -24 16 -32 58 -13 70 6 3 38 9 73 13 59 7 62 9 65 35 l3 28 -63 -3
c-72 -3 -88 4 -88 37 0 36 37 54 128 65 93 10 118 21 128 52 5 16 1 27 -15 39
-26 22 -32 20 -143 -43 -94 -54 -135 -60 -149 -21 -12 33 22 68 105 110 84 41
106 59 106 85 0 35 -45 20 -120 -42 -55 -45 -104 -72 -122 -65 -7 3 -24 21
-37 40 -37 54 -25 77 86 174 66 57 82 83 63 106 -19 23 -40 5 -97 -84 -69
-107 -91 -131 -119 -131 -21 0 -33 17 -40 60 -2 8 10 44 27 81 36 83 36 102 4
117 -61 28 -96 5 -89 -57 19 -154 10 -191 -46 -191 -33 0 -41 16 -44 94 -2 55
-20 80 -47 65 -15 -7 -19 -21 -19 -59 0 -57 -20 -86 -50 -70 -18 10 -23 30
-36 140 -9 82 -41 113 -84 83z"/>
<path d="M756 1454 c-10 -26 19 -52 42 -38 9 6 17 20 17 30 0 26 -50 32 -59 8z"/>
<path d="M171 1367 c-21 -26 8 -65 87 -118 74 -49 100 -60 85 -36 -79 127
-145 186 -172 154z"/>
<path d="M1076 460 c6 -8 26 -53 44 -100 43 -114 59 -140 87 -140 27 0 63 33
63 58 0 10 -17 34 -37 53 -59 55 -169 145 -157 129z"/>
<path d="M367 233 c-13 -13 -7 -42 11 -52 22 -12 42 3 42 30 0 22 -38 38 -53
22z"/>
<path d="M877 230 c-25 -69 -31 -194 -10 -215 36 -36 64 11 52 88 -12 75 -35
145 -42 127z"/>
</g>
</svg>
